# xmcd CD database generated by RipIT
#
# Track frame offsets:
# 150
# 16501
# 32371
# 49411
# 67497
# 81390
# 99404
# 120158
# 136294
# 162249
# 178647
# 196453
#
# Disc length: 2849 seconds
#
# Revision: 0
# Processed by: cddbd v1.5.2PL0 Copyright (c) Steve Scherf et al.
# Submitted via: RipIT 3.9.0 www.suwald.com/ripit/ripit.html on 2011-06-23 at 00:53
#
DISCID=9a0b1f0c
DTITLE=Tom Vek - Leisure Seizure
DYEAR=2011
DGENRE=
TTITLE0=Hold your hand
TTITLE1=Aroused
TTITLE2=A chore
TTITLE3=We do nothing
TTITLE4=World of doubt
TTITLE5=Seizmic
TTITLE6=A.P.O.L.O.G.Y.
TTITLE7=Someone Loves You
TTITLE8=Close mic'ed
TTITLE9=On a plate
TTITLE10=You need to work your heart out
TTITLE11=Too bad
EXTD=
EXTT0=
EXTT1=
EXTT2=
EXTT3=
EXTT4=
EXTT5=
EXTT6=
EXTT7=
EXTT8=
EXTT9=
EXTT10=
EXTT11=
PLAYORDER=
